<?xml version="1.0" encoding="UTF-8" standalone="no"?>
<svg
   width="691"
   height="324"
   viewBox="0 0 691 324"
   fill="none"
   version="1.1"
   id="svg5"
   xmlns="http://www.w3.org/2000/svg"
   xmlns:svg="http://www.w3.org/2000/svg">
  <defs
     id="defs5" />
  <rect
     width="691"
     height="324"
     rx="26"
     fill="white"
     id="rect1"
     style="fill:#000000;fill-opacity:0"
     x="0"
     y="0" />
  <path
     d="m 123.205,219.418 c 0,-2.27 0.786,-4.192 2.358,-5.764 1.572,-1.572 3.493,-2.358 5.764,-2.358 2.271,0 4.192,0.786 5.764,2.358 1.572,1.572 2.358,3.494 2.358,5.764 0,2.271 -0.786,4.192 -2.358,5.764 -1.572,1.572 -3.493,2.358 -5.764,2.358 -2.271,0 -4.192,-0.786 -5.764,-2.358 -1.572,-1.572 -2.358,-3.493 -2.358,-5.764 z m -27.6411,11.79 c -1.31,1.572 -2.9257,2.358 -4.847,2.358 -1.7467,0 -3.2313,-0.611 -4.454,-1.834 -1.2227,-1.222 -1.834,-2.707 -1.834,-4.454 0,-1.572 0.4367,-2.838 1.31,-3.799 l 31.8331,-42.837 c 1.485,-2.008 3.45,-3.624 5.895,-4.847 2.445,-1.31 5.065,-1.965 7.86,-1.965 2.62,0 5.109,0.568 7.467,1.703 2.358,1.136 4.279,2.708 5.764,4.716 l 31.833,42.575 c 0.524,0.612 0.961,1.31 1.31,2.096 0.349,0.699 0.524,1.485 0.524,2.358 0,1.747 -0.611,3.232 -1.834,4.454 -1.223,1.223 -2.707,1.834 -4.454,1.834 -2.096,0 -3.755,-0.829 -4.978,-2.489 l -30.523,-40.741 c -0.611,-0.698 -1.397,-1.441 -2.358,-2.227 -0.873,-0.873 -1.79,-1.31 -2.751,-1.31 -0.961,0 -1.921,0.437 -2.882,1.31 -0.873,0.786 -1.572,1.529 -2.096,2.227 z M 208.801,211.296 c -2.445,0 -4.716,-0.436 -6.812,-1.31 -2.096,-0.96 -3.93,-2.227 -5.502,-3.799 -1.572,-1.572 -2.838,-3.406 -3.799,-5.502 -0.873,-2.096 -1.31,-4.366 -1.31,-6.812 0,-2.445 0.437,-4.716 1.31,-6.812 0.961,-2.096 2.227,-3.93 3.799,-5.502 1.572,-1.572 3.406,-2.794 5.502,-3.668 2.096,-0.96 4.367,-1.441 6.812,-1.441 h 79.517 c 1.747,0 3.231,0.612 4.454,1.834 1.223,1.223 1.834,2.708 1.834,4.454 0,1.747 -0.611,3.232 -1.834,4.454 -1.223,1.223 -2.707,1.834 -4.454,1.834 h -79.779 c -1.31,0 -2.489,0.481 -3.537,1.441 -0.961,0.874 -1.441,2.009 -1.441,3.406 0,1.31 0.48,2.446 1.441,3.406 1.048,0.961 2.227,1.441 3.537,1.441 h 72.443 c 2.445,0 4.716,0.481 6.812,1.441 2.183,0.874 4.061,2.096 5.633,3.668 1.572,1.572 2.795,3.45 3.668,5.633 0.961,2.096 1.441,4.367 1.441,6.812 0,2.446 -0.48,4.716 -1.441,6.812 -0.873,2.096 -2.096,3.93 -3.668,5.502 -1.572,1.572 -3.45,2.795 -5.633,3.668 -2.096,0.874 -4.367,1.31 -6.812,1.31 h -79.386 c -1.747,0 -3.231,-0.611 -4.454,-1.834 -1.223,-1.222 -1.834,-2.707 -1.834,-4.454 0,-1.746 0.611,-3.231 1.834,-4.454 1.223,-1.222 2.707,-1.834 4.454,-1.834 h 79.91 c 1.31,0 2.445,-0.436 3.406,-1.31 0.961,-0.96 1.441,-2.096 1.441,-3.406 0,-1.397 -0.48,-2.576 -1.441,-3.537 -0.961,-0.96 -2.096,-1.441 -3.406,-1.441 z M 408.048,176.45 c 1.747,0 3.231,0.612 4.454,1.834 1.223,1.223 1.834,2.708 1.834,4.454 0,1.747 -0.611,3.232 -1.834,4.454 -1.223,1.223 -2.707,1.834 -4.454,1.834 h -38.776 v 38.252 c 0,1.747 -0.611,3.232 -1.834,4.454 -1.223,1.223 -2.707,1.834 -4.454,1.834 -1.747,0 -3.231,-0.611 -4.454,-1.834 -1.223,-1.222 -1.834,-2.707 -1.834,-4.454 v -38.252 h -39.3 c -1.572,-0.174 -2.926,-0.829 -4.061,-1.965 -1.135,-1.222 -1.703,-2.663 -1.703,-4.323 0,-1.746 0.611,-3.231 1.834,-4.454 1.223,-1.222 2.707,-1.834 4.454,-1.834 z m 103.593,34.846 c 2.358,1.485 4.76,3.101 7.205,4.847 2.446,1.66 4.935,3.494 7.467,5.502 0.961,0.699 1.791,1.529 2.489,2.489 0.699,0.874 1.048,1.922 1.048,3.144 0,1.747 -0.611,3.232 -1.834,4.454 -1.222,1.223 -2.707,1.834 -4.454,1.834 -1.484,0 -2.969,-0.611 -4.454,-1.834 -3.58,-2.62 -7.248,-5.152 -11.004,-7.598 -3.755,-2.445 -7.685,-4.628 -11.79,-6.55 -4.017,-1.921 -8.209,-3.449 -12.576,-4.585 -4.366,-1.135 -8.908,-1.703 -13.624,-1.703 h -26.069 c -1.135,0.175 -2.096,0.699 -2.882,1.572 -0.786,0.874 -1.179,1.965 -1.179,3.275 v 11.135 c 0,1.747 -0.655,3.232 -1.965,4.454 -1.222,1.223 -2.663,1.834 -4.323,1.834 -1.746,0 -3.231,-0.611 -4.454,-1.834 -1.222,-1.222 -1.834,-2.707 -1.834,-4.454 v -12.576 c 0,-2.183 0.393,-4.235 1.179,-6.157 0.874,-2.008 2.009,-3.711 3.406,-5.109 1.398,-1.484 3.057,-2.62 4.978,-3.406 1.922,-0.873 4.018,-1.31 6.288,-1.31 h 69.43 c 1.31,0 2.446,-0.436 3.406,-1.31 1.048,-0.96 1.572,-2.139 1.572,-3.537 0,-1.31 -0.524,-2.445 -1.572,-3.406 -0.96,-0.96 -2.096,-1.441 -3.406,-1.441 h -78.993 c -1.746,0 -3.231,-0.611 -4.454,-1.834 -1.222,-1.222 -1.834,-2.707 -1.834,-4.454 0,-1.746 0.612,-3.231 1.834,-4.454 1.223,-1.222 2.708,-1.834 4.454,-1.834 h 78.469 c 2.446,0 4.716,0.481 6.812,1.441 2.184,0.874 4.061,2.096 5.633,3.668 1.66,1.572 2.926,3.406 3.799,5.502 0.961,2.096 1.441,4.367 1.441,6.812 0,2.446 -0.48,4.716 -1.441,6.812 -0.873,2.096 -2.139,3.93 -3.799,5.502 -1.572,1.572 -3.449,2.839 -5.633,3.799 -2.096,0.874 -4.366,1.31 -6.812,1.31 z M 636.332,179.463 C 0,0 0,0 636.332,179.463 Z"
     fill="black"
     id="path1"
     style="fill:#ffffff;fill-opacity:1" />
  <path
     d="m 61.3591,265.484 c 0,-0.624 0.216,-1.152 0.648,-1.584 0.432,-0.432 0.96,-0.648 1.584,-0.648 0.624,0 1.152,0.216 1.584,0.648 0.432,0.432 0.648,0.96 0.648,1.584 0,0.624 -0.216,1.152 -0.648,1.584 -0.432,0.432 -0.96,0.648 -1.584,0.648 -0.624,0 -1.152,-0.216 -1.584,-0.648 -0.432,-0.432 -0.648,-0.96 -0.648,-1.584 z m -7.596,3.24 c -0.36,0.432 -0.804,0.648 -1.332,0.648 -0.48,0 -0.888,-0.168 -1.224,-0.504 -0.336,-0.336 -0.504,-0.744 -0.504,-1.224 0,-0.432 0.12,-0.78 0.36,-1.044 l 8.748,-11.772 c 0.408,-0.552 0.948,-0.996 1.62,-1.332 0.672,-0.36 1.392,-0.54 2.16,-0.54 0.72,0 1.404,0.156 2.052,0.468 0.648,0.312 1.176,0.744 1.584,1.296 l 8.748,11.7 c 0.144,0.168 0.264,0.36 0.36,0.576 0.096,0.192 0.144,0.408 0.144,0.648 0,0.48 -0.168,0.888 -0.504,1.224 -0.336,0.336 -0.744,0.504 -1.224,0.504 -0.576,0 -1.032,-0.228 -1.368,-0.684 l -8.388,-11.196 c -0.168,-0.192 -0.384,-0.396 -0.648,-0.612 -0.24,-0.24 -0.492,-0.36 -0.756,-0.36 -0.264,0 -0.528,0.12 -0.792,0.36 -0.24,0.216 -0.432,0.42 -0.576,0.612 z m 29.8587,-5.472 c -0.672,0 -1.296,-0.12 -1.872,-0.36 -0.576,-0.264 -1.08,-0.612 -1.512,-1.044 -0.432,-0.432 -0.78,-0.936 -1.044,-1.512 -0.24,-0.576 -0.36,-1.2 -0.36,-1.872 0,-0.672 0.12,-1.296 0.36,-1.872 0.264,-0.576 0.612,-1.08 1.044,-1.512 0.432,-0.432 0.936,-0.768 1.512,-1.008 0.576,-0.264 1.2,-0.396 1.872,-0.396 h 21.8522 c 0.48,0 0.888,0.168 1.224,0.504 0.336,0.336 0.504,0.744 0.504,1.224 0,0.48 -0.168,0.888 -0.504,1.224 -0.336,0.336 -0.744,0.504 -1.224,0.504 H 83.5498 c -0.36,0 -0.684,0.132 -0.972,0.396 -0.264,0.24 -0.396,0.552 -0.396,0.936 0,0.36 0.132,0.672 0.396,0.936 0.288,0.264 0.612,0.396 0.972,0.396 h 19.9082 c 0.672,0 1.296,0.132 1.872,0.396 0.6,0.24 1.116,0.576 1.548,1.008 0.432,0.432 0.768,0.948 1.008,1.548 0.264,0.576 0.396,1.2 0.396,1.872 0,0.672 -0.132,1.296 -0.396,1.872 -0.24,0.576 -0.576,1.08 -1.008,1.512 -0.432,0.432 -0.948,0.768 -1.548,1.008 -0.576,0.24 -1.2,0.36 -1.872,0.36 H 81.6418 c -0.48,0 -0.888,-0.168 -1.224,-0.504 -0.336,-0.336 -0.504,-0.744 -0.504,-1.224 0,-0.48 0.168,-0.888 0.504,-1.224 0.336,-0.336 0.744,-0.504 1.224,-0.504 h 21.9602 c 0.36,0 0.672,-0.12 0.936,-0.36 0.264,-0.264 0.396,-0.576 0.396,-0.936 0,-0.384 -0.132,-0.708 -0.396,-0.972 -0.264,-0.264 -0.576,-0.396 -0.936,-0.396 z m 53.4952,-9.576 c 0.48,0 0.888,0.168 1.224,0.504 0.336,0.336 0.504,0.744 0.504,1.224 0,0.48 -0.168,0.888 -0.504,1.224 -0.336,0.336 -0.744,0.504 -1.224,0.504 h -10.656 v 10.512 c 0,0.48 -0.168,0.888 -0.504,1.224 -0.336,0.336 -0.744,0.504 -1.224,0.504 -0.48,0 -0.888,-0.168 -1.224,-0.504 -0.336,-0.336 -0.504,-0.744 -0.504,-1.224 v -10.512 h -10.8 c -0.432,-0.048 -0.804,-0.228 -1.116,-0.54 -0.312,-0.336 -0.468,-0.732 -0.468,-1.188 0,-0.48 0.168,-0.888 0.504,-1.224 0.336,-0.336 0.744,-0.504 1.224,-0.504 z m 27.208,9.576 c 0.648,0.408 1.308,0.852 1.98,1.332 0.672,0.456 1.356,0.96 2.052,1.512 0.264,0.192 0.492,0.42 0.684,0.684 0.192,0.24 0.288,0.528 0.288,0.864 0,0.48 -0.168,0.888 -0.504,1.224 -0.336,0.336 -0.744,0.504 -1.224,0.504 -0.408,0 -0.816,-0.168 -1.224,-0.504 -0.984,-0.72 -1.992,-1.416 -3.024,-2.088 -1.032,-0.672 -2.112,-1.272 -3.24,-1.8 -1.104,-0.528 -2.256,-0.948 -3.456,-1.26 -1.2,-0.312 -2.448,-0.468 -3.744,-0.468 h -7.164 c -0.312,0.048 -0.576,0.192 -0.792,0.432 -0.216,0.24 -0.324,0.54 -0.324,0.9 v 3.06 c 0,0.48 -0.18,0.888 -0.54,1.224 -0.336,0.336 -0.732,0.504 -1.188,0.504 -0.48,0 -0.888,-0.168 -1.224,-0.504 -0.336,-0.336 -0.504,-0.744 -0.504,-1.224 v -3.456 c 0,-0.6 0.108,-1.164 0.324,-1.692 0.24,-0.552 0.552,-1.02 0.936,-1.404 0.384,-0.408 0.84,-0.72 1.368,-0.936 0.528,-0.24 1.104,-0.36 1.728,-0.36 h 19.08 c 0.36,0 0.672,-0.12 0.936,-0.36 0.288,-0.264 0.432,-0.588 0.432,-0.972 0,-0.36 -0.144,-0.672 -0.432,-0.936 -0.264,-0.264 -0.576,-0.396 -0.936,-0.396 h -21.708 c -0.48,0 -0.888,-0.168 -1.224,-0.504 -0.336,-0.336 -0.504,-0.744 -0.504,-1.224 0,-0.48 0.168,-0.888 0.504,-1.224 0.336,-0.336 0.744,-0.504 1.224,-0.504 h 21.564 c 0.672,0 1.296,0.132 1.872,0.396 0.6,0.24 1.116,0.576 1.548,1.008 0.456,0.432 0.804,0.936 1.044,1.512 0.264,0.576 0.396,1.2 0.396,1.872 0,0.672 -0.132,1.296 -0.396,1.872 -0.24,0.576 -0.588,1.08 -1.044,1.512 -0.432,0.432 -0.948,0.78 -1.548,1.044 -0.576,0.24 -1.2,0.36 -1.872,0.36 z m 29.262,2.664 c 0.816,0 1.488,-0.144 2.016,-0.432 0.528,-0.312 0.936,-0.684 1.224,-1.116 0.312,-0.432 0.516,-0.9 0.612,-1.404 0.12,-0.528 0.18,-1.008 0.18,-1.44 0,-0.432 -0.06,-0.9 -0.18,-1.404 -0.096,-0.528 -0.3,-1.008 -0.612,-1.44 -0.288,-0.432 -0.696,-0.792 -1.224,-1.08 -0.528,-0.312 -1.2,-0.468 -2.016,-0.468 h -14.544 c -0.84,0 -1.524,0.156 -2.052,0.468 -0.504,0.288 -0.912,0.648 -1.224,1.08 -0.288,0.432 -0.492,0.912 -0.612,1.44 -0.096,0.504 -0.144,0.972 -0.144,1.404 0,0.432 0.048,0.912 0.144,1.44 0.12,0.504 0.324,0.972 0.612,1.404 0.312,0.432 0.72,0.804 1.224,1.116 0.528,0.288 1.212,0.432 2.052,0.432 z m 7.38,-4.392 c 0,0.912 -0.156,1.836 -0.468,2.772 -0.288,0.912 -0.72,1.752 -1.296,2.52 -0.576,0.744 -1.272,1.356 -2.088,1.836 -0.816,0.48 -1.74,0.72 -2.772,0.72 h -16.416 c -0.984,-0.048 -1.86,-0.312 -2.628,-0.792 -0.768,-0.504 -1.428,-1.128 -1.98,-1.872 -0.528,-0.744 -0.936,-1.572 -1.224,-2.484 -0.288,-0.912 -0.432,-1.812 -0.432,-2.7 0,-0.912 0.144,-1.824 0.432,-2.736 0.312,-0.936 0.756,-1.776 1.332,-2.52 0.576,-0.768 1.272,-1.392 2.088,-1.872 0.816,-0.48 1.74,-0.72 2.772,-0.72 h 16.416 c 0.984,0.048 1.86,0.324 2.628,0.828 0.768,0.48 1.416,1.092 1.944,1.836 0.552,0.744 0.972,1.572 1.26,2.484 0.288,0.912 0.432,1.812 0.432,2.7 z m 26.858,-6.12 c 0,-0.48 0.168,-0.888 0.504,-1.224 0.336,-0.336 0.744,-0.504 1.224,-0.504 0.48,0 0.888,0.168 1.224,0.504 0.336,0.336 0.504,0.744 0.504,1.224 v 10.476 c 0,0.984 -0.336,1.812 -1.008,2.484 -0.648,0.672 -1.464,1.008 -2.448,1.008 -0.336,0 -0.672,-0.048 -1.008,-0.144 -0.312,-0.096 -0.6,-0.228 -0.864,-0.396 l -16.488,-10.08 c -0.456,-0.264 -0.84,-0.468 -1.152,-0.612 -0.288,-0.168 -0.528,-0.252 -0.72,-0.252 -0.36,0 -0.588,0.228 -0.684,0.684 -0.096,0.456 -0.144,1.116 -0.144,1.98 v 7.092 c 0,0.48 -0.168,0.888 -0.504,1.224 -0.336,0.336 -0.744,0.504 -1.224,0.504 -0.48,0 -0.888,-0.168 -1.224,-0.504 -0.336,-0.336 -0.504,-0.744 -0.504,-1.224 v -10.476 c 0,-0.984 0.324,-1.812 0.972,-2.484 0.672,-0.672 1.5,-1.008 2.484,-1.008 0.336,0 0.66,0.048 0.972,0.144 0.336,0.096 0.636,0.228 0.9,0.396 l 16.488,10.08 c 0.456,0.264 0.828,0.48 1.116,0.648 0.312,0.144 0.564,0.216 0.756,0.216 0.36,0 0.588,-0.228 0.684,-0.684 0.096,-0.456 0.144,-1.116 0.144,-1.98 z m 27.719,10.512 c 0.816,0 1.488,-0.144 2.016,-0.432 0.528,-0.312 0.936,-0.684 1.224,-1.116 0.312,-0.432 0.516,-0.9 0.612,-1.404 0.12,-0.528 0.18,-1.008 0.18,-1.44 0,-0.432 -0.06,-0.9 -0.18,-1.404 -0.096,-0.528 -0.3,-1.008 -0.612,-1.44 -0.288,-0.432 -0.696,-0.792 -1.224,-1.08 -0.528,-0.312 -1.2,-0.468 -2.016,-0.468 H 241 c -0.84,0 -1.524,0.156 -2.052,0.468 -0.504,0.288 -0.912,0.648 -1.224,1.08 -0.288,0.432 -0.492,0.912 -0.612,1.44 -0.096,0.504 -0.144,0.972 -0.144,1.404 0,0.432 0.048,0.912 0.144,1.44 0.12,0.504 0.324,0.972 0.612,1.404 0.312,0.432 0.72,0.804 1.224,1.116 0.528,0.288 1.212,0.432 2.052,0.432 z m 7.38,-4.392 c 0,0.912 -0.156,1.836 -0.468,2.772 -0.288,0.912 -0.72,1.752 -1.296,2.52 -0.576,0.744 -1.272,1.356 -2.088,1.836 -0.816,0.48 -1.74,0.72 -2.772,0.72 h -16.416 c -0.984,-0.048 -1.86,-0.312 -2.628,-0.792 -0.768,-0.504 -1.428,-1.128 -1.98,-1.872 -0.528,-0.744 -0.936,-1.572 -1.224,-2.484 -0.288,-0.912 -0.432,-1.812 -0.432,-2.7 0,-0.912 0.144,-1.824 0.432,-2.736 0.312,-0.936 0.756,-1.776 1.332,-2.52 0.576,-0.768 1.272,-1.392 2.088,-1.872 0.816,-0.48 1.74,-0.72 2.772,-0.72 h 16.416 c 0.984,0.048 1.86,0.324 2.628,0.828 0.768,0.48 1.416,1.092 1.944,1.836 0.552,0.744 0.972,1.572 1.26,2.484 0.288,0.912 0.432,1.812 0.432,2.7 z m 32.726,6.12 c 0,0.48 -0.168,0.888 -0.504,1.224 -0.336,0.336 -0.744,0.504 -1.224,0.504 -0.48,0 -0.888,-0.168 -1.224,-0.504 -0.336,-0.336 -0.504,-0.744 -0.504,-1.224 v -7.848 c 0,-0.984 -0.06,-1.476 -0.18,-1.476 -0.096,0 -0.432,0.324 -1.008,0.972 l -7.92,9 c -0.312,0.36 -0.696,0.636 -1.152,0.828 -0.456,0.168 -0.948,0.252 -1.476,0.252 -0.528,0 -1.02,-0.084 -1.476,-0.252 -0.456,-0.192 -0.84,-0.468 -1.152,-0.828 l -7.92,-9 c -0.552,-0.648 -0.888,-0.972 -1.008,-0.972 -0.12,0 -0.18,0.492 -0.18,1.476 v 7.848 c 0,0.48 -0.168,0.888 -0.504,1.224 -0.336,0.336 -0.744,0.504 -1.224,0.504 -0.48,0 -0.888,-0.168 -1.224,-0.504 -0.336,-0.336 -0.504,-0.744 -0.504,-1.224 v -10.512 c 0,-0.96 0.276,-1.776 0.828,-2.448 0.552,-0.672 1.308,-1.008 2.268,-1.008 0.576,0 1.092,0.144 1.548,0.432 0.456,0.288 0.876,0.636 1.26,1.044 l 8.28,9.432 c 0.12,0.12 0.264,0.252 0.432,0.396 0.192,0.12 0.384,0.18 0.576,0.18 0.192,0 0.372,-0.06 0.54,-0.18 0.192,-0.144 0.348,-0.276 0.468,-0.396 l 8.244,-9.432 h 0.036 c 0.336,-0.456 0.744,-0.816 1.224,-1.08 0.48,-0.264 1.008,-0.396 1.584,-0.396 0.96,0 1.716,0.336 2.268,1.008 0.552,0.672 0.828,1.488 0.828,2.448 z m 18.552,0 c 0,0.48 -0.168,0.888 -0.504,1.224 -0.336,0.336 -0.744,0.504 -1.224,0.504 -0.48,0 -0.888,-0.168 -1.224,-0.504 -0.336,-0.336 -0.504,-0.744 -0.504,-1.224 v -4.392 c -0.912,0 -1.8,-0.12 -2.664,-0.36 -0.864,-0.24 -1.776,-0.612 -2.736,-1.116 -0.936,-0.528 -1.944,-1.2 -3.024,-2.016 -1.08,-0.816 -2.292,-1.812 -3.636,-2.988 -0.192,-0.168 -0.36,-0.372 -0.504,-0.612 -0.12,-0.24 -0.18,-0.492 -0.18,-0.756 0,-0.48 0.168,-0.888 0.504,-1.224 0.336,-0.336 0.744,-0.504 1.224,-0.504 0.24,0 0.456,0.048 0.648,0.144 0.192,0.096 0.384,0.216 0.576,0.36 1.536,1.344 2.82,2.4 3.852,3.168 1.056,0.744 1.992,1.296 2.808,1.656 0.84,0.36 1.632,0.588 2.376,0.684 0.744,0.072 1.584,0.108 2.52,0.108 0.936,0 1.764,-0.036 2.484,-0.108 0.72,-0.072 1.488,-0.288 2.304,-0.648 0.816,-0.36 1.74,-0.912 2.772,-1.656 1.056,-0.768 2.364,-1.836 3.924,-3.204 0.408,-0.336 0.816,-0.504 1.224,-0.504 0.48,0 0.888,0.168 1.224,0.504 0.336,0.336 0.504,0.744 0.504,1.224 0,0.264 -0.072,0.516 -0.216,0.756 -0.12,0.24 -0.276,0.444 -0.468,0.612 -1.32,1.152 -2.532,2.148 -3.636,2.988 -1.104,0.816 -2.148,1.488 -3.132,2.016 -0.96,0.504 -1.884,0.876 -2.772,1.116 -0.864,0.24 -1.704,0.36 -2.52,0.36 z m 34.83,-4.392 c -0.672,0 -1.296,-0.12 -1.872,-0.36 -0.576,-0.264 -1.08,-0.612 -1.512,-1.044 -0.432,-0.432 -0.78,-0.936 -1.044,-1.512 -0.24,-0.576 -0.36,-1.2 -0.36,-1.872 0,-0.672 0.12,-1.296 0.36,-1.872 0.264,-0.576 0.612,-1.08 1.044,-1.512 0.432,-0.432 0.936,-0.768 1.512,-1.008 0.576,-0.264 1.2,-0.396 1.872,-0.396 h 21.852 c 0.48,0 0.888,0.168 1.224,0.504 0.336,0.336 0.504,0.744 0.504,1.224 0,0.48 -0.168,0.888 -0.504,1.224 -0.336,0.336 -0.744,0.504 -1.224,0.504 H 348.96 c -0.36,0 -0.684,0.132 -0.972,0.396 -0.264,0.24 -0.396,0.552 -0.396,0.936 0,0.36 0.132,0.672 0.396,0.936 0.288,0.264 0.612,0.396 0.972,0.396 h 19.908 c 0.672,0 1.296,0.132 1.872,0.396 0.6,0.24 1.116,0.576 1.548,1.008 0.432,0.432 0.768,0.948 1.008,1.548 0.264,0.576 0.396,1.2 0.396,1.872 0,0.672 -0.132,1.296 -0.396,1.872 -0.24,0.576 -0.576,1.08 -1.008,1.512 -0.432,0.432 -0.948,0.768 -1.548,1.008 -0.576,0.24 -1.2,0.36 -1.872,0.36 h -21.816 c -0.48,0 -0.888,-0.168 -1.224,-0.504 -0.336,-0.336 -0.504,-0.744 -0.504,-1.224 0,-0.48 0.168,-0.888 0.504,-1.224 0.336,-0.336 0.744,-0.504 1.224,-0.504 h 21.96 c 0.36,0 0.672,-0.12 0.936,-0.36 0.264,-0.264 0.396,-0.576 0.396,-0.936 0,-0.384 -0.132,-0.708 -0.396,-0.972 -0.264,-0.264 -0.576,-0.396 -0.936,-0.396 z m 48.923,2.664 c 0.816,0 1.488,-0.144 2.016,-0.432 0.528,-0.312 0.936,-0.684 1.224,-1.116 0.312,-0.432 0.516,-0.9 0.612,-1.404 0.12,-0.528 0.18,-1.008 0.18,-1.44 0,-0.432 -0.06,-0.9 -0.18,-1.404 -0.096,-0.528 -0.3,-1.008 -0.612,-1.44 -0.288,-0.432 -0.696,-0.792 -1.224,-1.08 -0.528,-0.312 -1.2,-0.468 -2.016,-0.468 h -14.544 c -0.84,0 -1.524,0.156 -2.052,0.468 -0.504,0.288 -0.912,0.648 -1.224,1.08 -0.288,0.432 -0.492,0.912 -0.612,1.44 -0.096,0.504 -0.144,0.972 -0.144,1.404 0,0.432 0.048,0.912 0.144,1.44 0.12,0.504 0.324,0.972 0.612,1.404 0.312,0.432 0.72,0.804 1.224,1.116 0.528,0.288 1.212,0.432 2.052,0.432 z m 7.38,-4.392 c 0,0.912 -0.156,1.836 -0.468,2.772 -0.288,0.912 -0.72,1.752 -1.296,2.52 -0.576,0.744 -1.272,1.356 -2.088,1.836 -0.816,0.48 -1.74,0.72 -2.772,0.72 h -16.416 c -0.984,-0.048 -1.86,-0.312 -2.628,-0.792 -0.768,-0.504 -1.428,-1.128 -1.98,-1.872 -0.528,-0.744 -0.936,-1.572 -1.224,-2.484 -0.288,-0.912 -0.432,-1.812 -0.432,-2.7 0,-0.912 0.144,-1.824 0.432,-2.736 0.312,-0.936 0.756,-1.776 1.332,-2.52 0.576,-0.768 1.272,-1.392 2.088,-1.872 0.816,-0.48 1.74,-0.72 2.772,-0.72 h 16.416 c 0.984,0.048 1.86,0.324 2.628,0.828 0.768,0.48 1.416,1.092 1.944,1.836 0.552,0.744 0.972,1.572 1.26,2.484 0.288,0.912 0.432,1.812 0.432,2.7 z m 2.342,0 c 0,-0.912 0.144,-1.824 0.432,-2.736 0.312,-0.936 0.756,-1.776 1.332,-2.52 0.576,-0.768 1.272,-1.392 2.088,-1.872 0.816,-0.48 1.74,-0.72 2.772,-0.72 h 20.988 c 0.48,0 0.888,0.168 1.224,0.504 0.336,0.336 0.504,0.744 0.504,1.224 0,0.48 -0.168,0.888 -0.504,1.224 -0.336,0.336 -0.744,0.504 -1.224,0.504 h -20.232 c -0.84,0 -1.524,0.156 -2.052,0.468 -0.504,0.288 -0.912,0.648 -1.224,1.08 -0.288,0.432 -0.492,0.912 -0.612,1.44 -0.096,0.504 -0.144,0.972 -0.144,1.404 0,0.432 0.048,0.912 0.144,1.44 0.12,0.504 0.324,0.972 0.612,1.404 0.312,0.432 0.72,0.804 1.224,1.116 0.528,0.288 1.212,0.432 2.052,0.432 h 20.232 c 0.48,0 0.888,0.168 1.224,0.504 0.336,0.336 0.504,0.744 0.504,1.224 0,0.48 -0.168,0.888 -0.504,1.224 -0.336,0.336 -0.744,0.504 -1.224,0.504 h -21.348 c -0.984,0 -1.86,-0.24 -2.628,-0.72 -0.768,-0.48 -1.428,-1.092 -1.98,-1.836 -0.528,-0.768 -0.936,-1.62 -1.224,-2.556 -0.288,-0.936 -0.432,-1.848 -0.432,-2.736 z m 35.137,6.12 c 0,0.48 -0.168,0.888 -0.504,1.224 -0.336,0.336 -0.744,0.504 -1.224,0.504 -0.48,0 -0.888,-0.168 -1.224,-0.504 -0.336,-0.336 -0.504,-0.744 -0.504,-1.224 v -12.24 c 0,-0.48 0.168,-0.888 0.504,-1.224 0.336,-0.336 0.744,-0.504 1.224,-0.504 0.48,0 0.888,0.168 1.224,0.504 0.336,0.336 0.504,0.744 0.504,1.224 z m 2.351,-12.24 c 0,-0.48 0.168,-0.888 0.504,-1.224 0.336,-0.336 0.744,-0.504 1.224,-0.504 h 25.524 c 0.48,0 0.888,0.168 1.224,0.504 0.336,0.336 0.504,0.744 0.504,1.224 0,0.48 -0.168,0.888 -0.504,1.224 -0.336,0.336 -0.744,0.504 -1.224,0.504 h -25.524 c -0.48,0 -0.888,-0.168 -1.224,-0.504 -0.336,-0.336 -0.504,-0.744 -0.504,-1.224 z m 4.392,13.968 c -0.528,0 -1.056,-0.108 -1.584,-0.324 -0.528,-0.24 -0.996,-0.564 -1.404,-0.972 -0.408,-0.408 -0.744,-0.9 -1.008,-1.476 -0.264,-0.576 -0.396,-1.224 -0.396,-1.944 v -3.24 c 0,-0.648 0.18,-1.08 0.54,-1.296 0.384,-0.216 0.972,-0.324 1.764,-0.324 h 24.156 c 0.48,0 0.888,0.168 1.224,0.504 0.336,0.336 0.504,0.744 0.504,1.224 0,0.48 -0.168,0.888 -0.504,1.224 -0.336,0.336 -0.744,0.504 -1.224,0.504 h -23.004 v 1.764 c 0,0.24 0.096,0.456 0.288,0.648 0.216,0.168 0.492,0.252 0.828,0.252 h 22.68 c 0.48,0 0.888,0.168 1.224,0.504 0.336,0.336 0.504,0.744 0.504,1.224 0,0.48 -0.168,0.888 -0.504,1.224 -0.336,0.336 -0.744,0.504 -1.224,0.504 z m 53.434,-15.696 c 0.48,0 0.888,0.168 1.224,0.504 0.336,0.336 0.504,0.744 0.504,1.224 0,0.48 -0.168,0.888 -0.504,1.224 -0.336,0.336 -0.744,0.504 -1.224,0.504 h -10.656 v 10.512 c 0,0.48 -0.168,0.888 -0.504,1.224 -0.336,0.336 -0.744,0.504 -1.224,0.504 -0.48,0 -0.888,-0.168 -1.224,-0.504 -0.336,-0.336 -0.504,-0.744 -0.504,-1.224 v -10.512 h -10.8 c -0.432,-0.048 -0.804,-0.228 -1.116,-0.54 -0.312,-0.336 -0.468,-0.732 -0.468,-1.188 0,-0.48 0.168,-0.888 0.504,-1.224 0.336,-0.336 0.744,-0.504 1.224,-0.504 z m 20.26,13.968 c 0,0.48 -0.168,0.888 -0.504,1.224 -0.336,0.336 -0.744,0.504 -1.224,0.504 -0.48,0 -0.888,-0.168 -1.224,-0.504 -0.336,-0.336 -0.504,-0.744 -0.504,-1.224 v -4.392 c -0.912,0 -1.8,-0.12 -2.664,-0.36 -0.864,-0.24 -1.776,-0.612 -2.736,-1.116 -0.936,-0.528 -1.944,-1.2 -3.024,-2.016 -1.08,-0.816 -2.292,-1.812 -3.636,-2.988 -0.192,-0.168 -0.36,-0.372 -0.504,-0.612 -0.12,-0.24 -0.18,-0.492 -0.18,-0.756 0,-0.48 0.168,-0.888 0.504,-1.224 0.336,-0.336 0.744,-0.504 1.224,-0.504 0.24,0 0.456,0.048 0.648,0.144 0.192,0.096 0.384,0.216 0.576,0.36 1.536,1.344 2.82,2.4 3.852,3.168 1.056,0.744 1.992,1.296 2.808,1.656 0.84,0.36 1.632,0.588 2.376,0.684 0.744,0.072 1.584,0.108 2.52,0.108 0.936,0 1.764,-0.036 2.484,-0.108 0.72,-0.072 1.488,-0.288 2.304,-0.648 0.816,-0.36 1.74,-0.912 2.772,-1.656 1.056,-0.768 2.364,-1.836 3.924,-3.204 0.408,-0.336 0.816,-0.504 1.224,-0.504 0.48,0 0.888,0.168 1.224,0.504 0.336,0.336 0.504,0.744 0.504,1.224 0,0.264 -0.072,0.516 -0.216,0.756 -0.12,0.24 -0.276,0.444 -0.468,0.612 -1.32,1.152 -2.532,2.148 -3.636,2.988 -1.104,0.816 -2.148,1.488 -3.132,2.016 -0.96,0.504 -1.884,0.876 -2.772,1.116 -0.864,0.24 -1.704,0.36 -2.52,0.36 z m 56.502,-7.848 c 0.48,0 0.888,0.168 1.224,0.504 0.336,0.336 0.504,0.744 0.504,1.224 0,0.48 -0.168,0.888 -0.504,1.224 -0.336,0.336 -0.744,0.504 -1.224,0.504 h -18.648 c -0.48,0 -0.888,-0.168 -1.224,-0.504 -0.336,-0.336 -0.504,-0.744 -0.504,-1.224 0,-0.48 0.168,-0.888 0.504,-1.224 0.336,-0.336 0.744,-0.504 1.224,-0.504 z m -26.424,1.728 c 0,-0.912 0.144,-1.824 0.432,-2.736 0.312,-0.936 0.756,-1.776 1.332,-2.52 0.576,-0.768 1.272,-1.392 2.088,-1.872 0.816,-0.48 1.74,-0.72 2.772,-0.72 h 20.628 c 0.48,0 0.888,0.168 1.224,0.504 0.336,0.336 0.504,0.744 0.504,1.224 0,0.48 -0.168,0.888 -0.504,1.224 -0.336,0.336 -0.744,0.504 -1.224,0.504 h -19.872 c -0.792,0 -1.44,0.132 -1.944,0.396 -0.504,0.264 -0.9,0.612 -1.188,1.044 -0.288,0.408 -0.492,0.852 -0.612,1.332 -0.096,0.48 -0.156,0.936 -0.18,1.368 v 6.372 c 0,0.48 -0.168,0.888 -0.504,1.224 -0.336,0.336 -0.744,0.504 -1.224,0.504 -0.48,0 -0.888,-0.168 -1.224,-0.504 -0.336,-0.336 -0.504,-0.744 -0.504,-1.224 z m 36.082,1.728 c -0.672,0 -1.296,-0.12 -1.872,-0.36 -0.576,-0.264 -1.08,-0.612 -1.512,-1.044 -0.432,-0.432 -0.78,-0.936 -1.044,-1.512 -0.24,-0.576 -0.36,-1.2 -0.36,-1.872 0,-0.672 0.12,-1.296 0.36,-1.872 0.264,-0.576 0.612,-1.08 1.044,-1.512 0.432,-0.432 0.936,-0.768 1.512,-1.008 0.576,-0.264 1.2,-0.396 1.872,-0.396 h 21.852 c 0.48,0 0.888,0.168 1.224,0.504 0.336,0.336 0.504,0.744 0.504,1.224 0,0.48 -0.168,0.888 -0.504,1.224 -0.336,0.336 -0.744,0.504 -1.224,0.504 h -21.924 c -0.36,0 -0.684,0.132 -0.972,0.396 -0.264,0.24 -0.396,0.552 -0.396,0.936 0,0.36 0.132,0.672 0.396,0.936 0.288,0.264 0.612,0.396 0.972,0.396 h 19.908 c 0.672,0 1.296,0.132 1.872,0.396 0.6,0.24 1.116,0.576 1.548,1.008 0.432,0.432 0.768,0.948 1.008,1.548 0.264,0.576 0.396,1.2 0.396,1.872 0,0.672 -0.132,1.296 -0.396,1.872 -0.24,0.576 -0.576,1.08 -1.008,1.512 -0.432,0.432 -0.948,0.768 -1.548,1.008 -0.576,0.24 -1.2,0.36 -1.872,0.36 h -21.816 c -0.48,0 -0.888,-0.168 -1.224,-0.504 -0.336,-0.336 -0.504,-0.744 -0.504,-1.224 0,-0.48 0.168,-0.888 0.504,-1.224 0.336,-0.336 0.744,-0.504 1.224,-0.504 h 21.96 c 0.36,0 0.672,-0.12 0.936,-0.36 0.264,-0.264 0.396,-0.576 0.396,-0.936 0,-0.384 -0.132,-0.708 -0.396,-0.972 -0.264,-0.264 -0.576,-0.396 -0.936,-0.396 z m 37.654,2.232 c 0,-0.624 0.216,-1.152 0.648,-1.584 0.432,-0.432 0.96,-0.648 1.584,-0.648 0.624,0 1.152,0.216 1.584,0.648 0.432,0.432 0.648,0.96 0.648,1.584 0,0.624 -0.216,1.152 -0.648,1.584 -0.432,0.432 -0.96,0.648 -1.584,0.648 -0.624,0 -1.152,-0.216 -1.584,-0.648 -0.432,-0.432 -0.648,-0.96 -0.648,-1.584 z m -7.596,3.24 c -0.36,0.432 -0.804,0.648 -1.332,0.648 -0.48,0 -0.888,-0.168 -1.224,-0.504 -0.336,-0.336 -0.504,-0.744 -0.504,-1.224 0,-0.432 0.12,-0.78 0.36,-1.044 l 8.748,-11.772 c 0.408,-0.552 0.948,-0.996 1.62,-1.332 0.672,-0.36 1.392,-0.54 2.16,-0.54 0.72,0 1.404,0.156 2.052,0.468 0.648,0.312 1.176,0.744 1.584,1.296 l 8.748,11.7 c 0.144,0.168 0.264,0.36 0.36,0.576 0.096,0.192 0.144,0.408 0.144,0.648 0,0.48 -0.168,0.888 -0.504,1.224 -0.336,0.336 -0.744,0.504 -1.224,0.504 -0.576,0 -1.032,-0.228 -1.368,-0.684 l -8.388,-11.196 c -0.168,-0.192 -0.384,-0.396 -0.648,-0.612 -0.24,-0.24 -0.492,-0.36 -0.756,-0.36 -0.264,0 -0.528,0.12 -0.792,0.36 -0.24,0.216 -0.432,0.42 -0.576,0.612 z"
     fill="black"
     id="path2"
     style="fill:#ffffff;fill-opacity:1" />
  <path
     d="m 562,209.129 c -1.78551,-4.0174 -4.1245,-8.90929 -6.89508,-14.42368 C 539.25503,163.15876 509.28019,111.23968 488,86.1294 c 41.167,9.6667 119.7,54.6996 140.5,83.4996"
     stroke="black"
     stroke-width="12.7"
     stroke-linecap="round"
     id="path4"
     style="fill:#000000;fill-opacity:0;stroke:#ffffff;stroke-opacity:1" />
  <path
     d="M 451,67.6119 C 329,16.6119 103.5,70.6294 55,227.129"
     stroke="black"
     stroke-width="12.7"
     stroke-linecap="round"
     id="path5"
     style="stroke:#ffffff;stroke-opacity:1" />
  <path
     id="circle3-7"
     style="fill:#fdfdfd;fill-opacity:1;paint-order:stroke fill markers"
     d="m 598.71145,149.65716 a 45.5,45.5 0 0 0 -45.5,45.5 45.5,45.5 0 0 0 45.5,45.5 45.5,45.5 0 0 0 45.5,-45.5 45.5,45.5 0 0 0 -45.5,-45.5 z m 0,13 a 32.5,32.5 0 0 1 32.5,32.5 32.5,32.5 0 0 1 -32.5,32.5 32.5,32.5 0 0 1 -32.5,-32.5 32.5,32.5 0 0 1 32.5,-32.5 z" />
  <ellipse
     style="fill:none;fill-opacity:1;stroke-width:1;stroke-dasharray:none;paint-order:stroke fill markers"
     id="path7"
     cx="373.32715"
     cy="13.544191"
     rx="1.9700642"
     ry="1.4775481" />
  <ellipse
     style="fill:none;fill-opacity:1;stroke-width:1;stroke-dasharray:none;paint-order:stroke fill markers"
     id="path8"
     cx="466.78207"
     cy="44.080185"
     rx="41.001961"
     ry="18.961868" />
</svg>
